<svg fill="none" height="204" viewBox="0 0 214 204" width="214" xmlns="http://www.w3.org/2000/svg" xmlns:xlink="http://www.w3.org/1999/xlink"><clipPath id="a"><path d="m0 0h214v204h-214z"/></clipPath><g clip-path="url(#a)" clip-rule="evenodd" fill="#fff" fill-rule="evenodd"><path d="m198 4h-182c-6.62742 0-12 5.37258-12 12v172c0 6.627 5.37258 12 12 12h182c6.627 0 12-5.373 12-12v-172c0-6.62742-5.373-12-12-12zm-182-4c-8.83656 0-16 7.16344-16 16v172c0 8.837 7.16344 16 16 16h182c8.837 0 16-7.163 16-16v-172c0-8.83656-7.163-16-16-16z"/><path d="m16 4h182c6.627 0 12 5.37258 12 12v172c0 6.627-5.373 12-12 12h-182c-6.62742 0-12-5.373-12-12v-172c0-6.62742 5.37258-12 12-12zm-16 12c0-8.83656 7.16344-16 16-16h182c8.837 0 16 7.16344 16 16v172c0 8.837-7.163 16-16 16h-182c-8.83656 0-16-7.163-16-16zm63.5805 47.5464c.6918.8754 1.0376 2.4746 1.0376 4.7962l.0016 19.5124h13.781v-20.6954c0-3.2398-.5402-5.8873-1.6206-7.9472-1.0835-2.1441-2.5099-3.8076-4.2836-4.9906-3.8076-2.2313-8.0039-3.3041-12.5874-3.2169-2.118 0-4.2391.2189-6.3572.6566-2.1639.5693-4.109 1.4232-5.8399 2.5618-1.7737 1.183-3.2031 2.8481-4.2836 4.9921-1.2533 2.0599-1.8808 4.709-1.8808 7.9488v67.2668c.0842 6.088 2.1395 10.291 6.1629 12.613 1.7308 1.183 3.6759 2.037 5.8399 2.562 2.1165.656 4.2376.986 6.3572.986 2.2925 0 4.5406-.33 6.7475-.986 2.1624-.525 4.109-1.379 5.8399-2.562 1.7737-1.139 3.2016-2.781 4.2835-4.926 1.0805-2.059 1.6207-4.62 1.6207-7.686v-21.939h-13.7811v20.695c0 2.366-.3443 3.942-1.0376 4.73-.831.92-2.0063 1.336-3.5306 1.249-1.5242.087-2.6521-.329-3.3913-1.249-.8769-.788-1.3146-2.364-1.3146-4.73v-64.8454c0-2.3216.4377-3.9208 1.3146-4.7962.7392-.7453 1.8686-1.1172 3.3913-1.1172 1.5228 0 2.6996.3719 3.5306 1.1172zm41.3875-10.6347h-18.62l-.0016 95.7763h13.7946v-44.412c3.506-.176 5.929.327 7.268 1.51 1.338 1.226 2.008 3.329 2.008 6.307-.132 5.65-.132 11.695 0 18.134.084 6.657.637 12.812 1.656 18.461h13.822c-.95-6.656-1.469-13.292-1.555-19.904-.173-6.656-.411-13.16-.713-19.51-.085-2.234-.509-4.074-1.27-5.518-.805-1.445-1.841-2.562-3.113-3.35-2.624-1.621-5.524-2.5622-8.7-2.8254v-.2633c5.716-.831 9.484-2.5389 11.305-5.1237 1.653-2.5833 2.436-5.6701 2.349-9.2619v-13.5974c-.086-6.0879-1.686-10.402-4.801-12.9409-3.2-2.3216-7.676-3.4817-13.429-3.4817zm-1.986 39.6829h-2.839l.001-28.2585h3.6c3.644-.0873 5.537 1.489 5.674 4.7304v17.3499c0 1.7967-.393 3.2199-1.176 4.2713-.831 1.2702-2.585 1.9069-5.26 1.9069zm65.018-39.6829v81.5203c0 3.067-.54 5.629-1.621 7.687-1.082 2.146-2.509 3.788-4.283 4.927-1.731 1.183-3.678 2.037-5.84 2.561-2.207.657-4.455.986-6.748.986-2.119 0-4.24-.329-6.357-.986-2.164-.524-4.109-1.378-5.84-2.561-4.023-2.322-6.078-6.526-6.163-12.614v-81.5203h13.795v80.2793c0 2.364.438 3.941 1.315 4.729.739.92 1.867 1.336 3.391 1.249 1.524.087 2.7-.329 3.531-1.249.693-.788 1.037-2.365 1.037-4.729v-80.2793z"/></g></svg>